PathFileType	4	(X/Y/Z)	./resultDataOpenSim/trcMotMarkerGrf/sub09/qtm-13-04.trc
DataRate	CameraRate	NumFrames	NumMarkers	Units	OrigDataRate	OrigDataStartFrame	OrigNumFrames
250.000000	250.000000	7	24	m	250.000000	129	512
Frame#	Time	L.Toe.Tip			R.Toe.Tip			L.Ankle.Lat			R.Ankle.Lat			L.Ankle.Med			R.Ankle.Med			L.Heel			R.Heel			L.Knee.Lat			R.Knee.Lat			L.Knee.Med			R.Knee.Med			L.Thigh.Upper			R.Thigh.Upper			L.ASIS			R.ASIS			V.Sacral			L.Acromium			R.Acromium			C7			L.Elbow			R.Elbow			L.Wrist.Lat			R.Wrist.Lat
		X1	Y1	Z1	X2	Y2	Z2	X3	Y3	Z3	X4	Y4	Z4	X5	Y5	Z5	X6	Y6	Z6	X7	Y7	Z7	X8	Y8	Z8	X9	Y9	Z9	X10	Y10	Z10	X11	Y11	Z11	X12	Y12	Z12	X13	Y13	Z13	X14	Y14	Z14	X15	Y15	Z15	X16	Y16	Z16	X17	Y17	Z17	X18	Y18	Z18	X19	Y19	Z19	X20	Y20	Z20	X21	Y21	Z21	X22	Y22	Z22	X23	Y23	Z23	X24	Y24	Z24

129	0.512	-0.039106648	0.11722178	-0.062239417	-0.59230743	0.038472377	0.020207473	-0.19210923	0.09968774	-0.09834001	-0.74069469	0.057892449	0.057544636	-0.17676269	0.12709028	-0.0038152405	-0.72457107	0.10119298	-0.03071581	-0.24033906	0.037960328	-0.044908992	-0.80804364	0.035974821	0.0073547155	-0.31761223	0.49745601	-0.13905585	-0.59390386	0.49119562	0.12440497	-0.31928323	0.49219121	-0.011760613	-0.61720051	0.48933268	0.0037273689	-0.4953714	0.87953662	-0.17979344	-0.54231267	0.89250738	0.18865499	-0.42727787	0.9686115	-0.11432992	-0.43289825	0.97445564	0.12496418	-0.59895997	1.0248385	-0.0069783213	-0.45838675	1.4241951	-0.17386206	-0.4568838	1.4358796	0.15644447	-0.51957207	1.4793433	-0.006746091	-0.63801683	1.1037535	-0.22239894	-0.57834218	1.095228	0.26420853	-0.53058468	0.86493394	-0.26875544	-0.39328921	0.89059291	0.25990588
130	0.516	-0.024980192	0.11981447	-0.060774594	-0.59233522	0.038408932	0.020354919	-0.17780281	0.1008324	-0.097947071	-0.74068554	0.058018236	0.057503751	-0.16346331	0.1282019	-0.0033545627	-0.72431006	0.10129037	-0.030667965	-0.22535724	0.038351195	-0.044981373	-0.80802342	0.036225037	0.0072136097	-0.31071408	0.49583776	-0.13844912	-0.59068866	0.49068877	0.12495268	-0.31311226	0.4901497	-0.010953875	-0.61461527	0.48876015	0.0041965083	-0.48855708	0.87765337	-0.17965455	-0.53709006	0.89116805	0.18842071	-0.4207498	0.96689338	-0.11406901	-0.42707166	0.97291092	0.12518154	-0.59267452	1.0230865	-0.0074168002	-0.45237047	1.4225496	-0.17400279	-0.45120845	1.4341942	0.15644037	-0.51369234	1.477695	-0.0069472095	-0.6321268	1.1023015	-0.22283484	-0.57190889	1.093088	0.2639502	-0.52521991	0.86325084	-0.26922287	-0.38617794	0.88925298	0.25979375
131	0.52	-0.01140337	0.1219712	-0.05930343	-0.59235322	0.038337709	0.020488186	-0.16411448	0.1019059	-0.097554167	-0.74064212	0.058173349	0.057440616	-0.15070688	0.12923738	-0.0029719137	-0.72402227	0.101403	-0.030645107	-0.21112065	0.038773608	-0.044930558	-0.8079856	0.036529055	0.0070708127	-0.30373669	0.49433428	-0.13790665	-0.58737627	0.49013401	0.12581978	-0.30694861	0.48817971	-0.010213448	-0.61194798	0.48811961	0.0046189531	-0.4817599	0.87574034	-0.17954514	-0.53180308	0.88977983	0.18820506	-0.4142515	0.96514604	-0.11381689	-0.42123715	0.97134163	0.1253831	-0.58622391	1.0212945	-0.0079592066	-0.44630917	1.4208403	-0.17414011	-0.44554346	1.4324872	0.15644888	-0.50784908	1.4760093	-0.0071020454	-0.62618293	1.1007882	-0.22329309	-0.56546602	1.0909017	0.26365873	-0.5198641	0.86150363	-0.2697188	-0.37905075	0.88785291	0.25968718
132	0.524	0.0015543326	0.12366487	-0.057879877	-0.5923491	0.038266767	0.020602711	-0.15106777	0.10285487	-0.097153392	-0.74053352	0.058321984	0.057340823	-0.13848932	0.1301719	-0.002645035	-0.72371058	0.10152624	-0.03066504	-0.19772128	0.039225723	-0.04493141	-0.80792536	0.036899542	0.0069094193	-0.29661356	0.4929516	-0.13744188	-0.58387708	0.48946283	0.12696193	-0.30075134	0.48627417	-0.0095821245	-0.60893088	0.48744741	0.0049692441	-0.47495312	0.87380526	-0.17945109	-0.52643845	0.88834255	0.18800886	-0.40778477	0.96337286	-0.11357755	-0.41540534	0.96975021	0.12557911	-0.57977478	1.0194688	-0.0084748601	-0.44020394	1.4190761	-0.17427256	-0.43990169	1.4307754	0.15647474	-0.50198023	1.4742938	-0.0072594855	-0.62019108	1.099213	-0.22375255	-0.55901553	1.088677	0.26333073	-0.51452212	0.8597188	-0.27021921	-0.37194032	0.88639388	0.25958887
133	0.528	0.01383272	0.12491477	-0.056564419	-0.59232002	0.038201437	0.02069785	-0.13871214	0.10362297	-0.096738207	-0.74027549	0.058384995	0.057205863	-0.12683955	0.13095747	-0.0023250024	-0.72338524	0.10165771	-0.030754164	-0.18519956	0.039663551	-0.045044643	-0.80784446	0.037334091	0.0067136697	-0.28928904	0.49169843	-0.1370588	-0.58016433	0.48858882	0.12824144	-0.29443432	0.48444742	-0.0090727326	-0.60549677	0.48676832	0.0051881981	-0.4681085	0.87184931	-0.17935216	-0.52098103	0.88685909	0.18783893	-0.40134538	0.96157732	-0.11334991	-0.40956891	0.96813867	0.12577283	-0.57346691	1.017604	-0.0088473901	-0.43405575	1.4172705	-0.17440114	-0.43426071	1.4290536	0.15650803	-0.49605842	1.4725602	-0.0074363701	-0.61415255	1.0975801	-0.22421859	-0.55256042	1.0864237	0.26296626	-0.50916595	0.85789383	-0.27071059	-0.36485513	0.88488945	0.25949526
134	0.532	0.02538625	0.12576253	-0.055395454	-0.59227255	0.038141698	0.020772921	-0.12710993	0.10416271	-0.096302981	-0.73978895	0.058289673	0.057046232	-0.11580095	0.13153701	-0.0019761377	-0.72305271	0.10180137	-0.030933658	-0.17351557	0.039973737	-0.045126154	-0.80774871	0.037830375	0.0064768868	-0.28176315	0.49057154	-0.13675129	-0.5764506	0.48746198	0.12940532	-0.28790707	0.48274207	-0.008677088	-0.60174577	0.48607654	0.0052863463	-0.46119627	0.86987309	-0.17923011	-0.51542404	0.88533311	0.18769711	-0.39493044	0.95976172	-0.11312795	-0.40370213	0.96650828	0.12595745	-0.56725695	1.0157174	-0.0090796114	-0.42786756	1.4154341	-0.17453726	-0.42857919	1.4272989	0.15652507	-0.49008914	1.4708093	-0.0076288269	-0.60806724	1.0958975	-0.2246993	-0.5461053	1.0841514	0.262569	-0.50376886	0.8560233	-0.27119129	-0.35778943	0.8833539	0.25940102
135	0.536	0.036172638	0.12623943	-0.054382246	-0.59221209	0.038086455	0.02082497	-0.11631084	0.10443623	-0.095851013	-0.7391321	0.058085723	0.056866372	-0.10540919	0.13185756	-0.0015949857	-0.72269503	0.10196795	-0.031187054	-0.16261993	0.040029039	-0.044988434	-0.80764163	0.038395084	0.0062001552	-0.27404905	0.48955661	-0.13649849	-0.57297624	0.48616529	0.13014085	-0.28108108	0.4812098	-0.0083713294	-0.59780114	0.48534231	0.0053126357	-0.45420731	0.86787533	-0.17906645	-0.50977157	0.88376644	0.18757837	-0.38853572	0.95792343	-0.11290814	-0.3977834	0.96485773	0.1261296	-0.56100883	1.0138618	-0.009228647	-0.42164478	1.4135681	-0.17469199	-0.42282682	1.4254965	0.15651093	-0.48409058	1.4690284	-0.0078291325	-0.60193379	1.0941756	-0.22519789	-0.53965832	1.0818671	0.2621427	-0.4983241	0.85410682	-0.27166542	-0.35073628	0.88179228	0.25930357
